<svg width="24" height="24" viewBox="0 0 24 24" fill="none" xmlns="http://www.w3.org/2000/svg">
<path d="M16.2427 17.2575C15.0571 18.0427 13.6353 18.5 12.1067 18.5C7.96455 18.5 4.60669 15.1421 4.60669 11C4.60669 6.85786 7.96455 3.5 12.1067 3.5C16.2488 3.5 19.6067 6.85786 19.6067 11C19.6067 12.8912 18.9067 14.6188 17.7518 15.9381L21.299 19.4853C21.6896 19.8758 21.6896 20.509 21.299 20.8995C20.9085 21.2901 20.2754 21.2901 19.8848 20.8995L16.2427 17.2575ZM15.99 14.8949C15.9939 14.891 15.9977 14.8871 16.0016 14.8832C16.9935 13.8884 17.6067 12.5158 17.6067 11C17.6067 7.96243 15.1443 5.5 12.1067 5.5C9.06912 5.5 6.60669 7.96243 6.60669 11C6.60669 14.0376 9.06912 16.5 12.1067 16.5C13.6225 16.5 14.9951 15.8868 15.99 14.8949Z" fill="#4D4D4D"/>
</svg>
